<?xml version="1.0" standalone="no"?>
<!DOCTYPE svg PUBLIC "-//W3C//DTD SVG 20010904//EN"
 "http://www.w3.org/TR/2001/REC-SVG-20010904/DTD/svg10.dtd">
<svg version="1.0" xmlns="http://www.w3.org/2000/svg"
 width="1124.000000pt" height="1124.000000pt" viewBox="0 0 1124.000000 1124.000000"
 preserveAspectRatio="xMidYMid meet">
<metadata>
Created by potrace 1.14, written by Peter Selinger 2001-2017
</metadata>
<g transform="translate(0.000000,1124.000000) scale(0.100000,-0.100000)"
fill="#000000" stroke="none">
<path d="M3408 9854 c-3 -2 -31 -6 -64 -9 -79 -6 -127 -14 -199 -31 -33 -8
-69 -17 -80 -19 -11 -2 -51 -13 -90 -24 -38 -12 -75 -23 -82 -24 -7 -2 -16 -6
-19 -10 -4 -4 -13 -7 -21 -7 -7 0 -32 -9 -56 -19 -46 -21 -67 -28 -81 -29 -5
0 -12 -4 -15 -9 -3 -4 -48 -28 -98 -53 -51 -24 -93 -48 -93 -52 0 -4 -6 -8
-12 -8 -7 0 -46 -23 -86 -50 -41 -28 -77 -50 -81 -50 -3 0 -13 -9 -21 -20 -8
-11 -20 -20 -26 -20 -7 0 -14 -3 -16 -7 -1 -5 -25 -26 -53 -48 -54 -43 -255
-238 -255 -248 0 -3 -10 -17 -22 -30 -52 -53 -156 -199 -209 -290 -34 -60
-140 -274 -143 -291 -1 -6 -9 -27 -18 -46 -13 -31 -57 -168 -62 -195 -1 -5 -5
-19 -9 -30 -3 -11 -8 -31 -11 -45 -3 -14 -7 -36 -10 -50 -3 -13 -8 -40 -11
-60 -3 -20 -8 -47 -10 -60 -13 -66 -18 -150 -17 -315 0 -184 4 -245 22 -350
18 -97 18 -100 20 -100 2 0 5 -15 13 -55 11 -55 48 -182 66 -225 5 -11 24 -58
42 -105 19 -47 36 -87 39 -90 3 -3 19 -32 35 -65 17 -33 35 -63 40 -67 6 -4 6
-8 2 -8 -4 0 10 -27 33 -59 22 -33 40 -65 40 -70 0 -6 4 -11 8 -11 4 0 15 -13
25 -29 65 -110 319 -378 442 -466 15 -11 39 -29 54 -41 77 -60 187 -126 329
-195 l102 -51 0 -1337 0 -1338 -215 1 c-137 1 -215 -3 -215 -9 0 -7 -3 -7 -8
0 -4 6 -20 10 -37 10 -16 0 -33 -4 -37 -10 -5 -7 -8 -7 -8 0 0 11 -89 13 -106
2 -6 -3 -14 -4 -18 0 -9 9 -256 9 -256 0 0 -4 -8 -4 -17 1 -10 5 -43 7 -73 5
-64 -4 -53 -4 -153 -1 -42 2 -77 -1 -77 -5 0 -4 -8 -4 -17 1 -10 5 -43 7 -73
5 -30 -2 -59 -3 -65 -3 -246 5 -495 3 -495 -5 0 -7 -3 -7 -8 0 -7 10 -72 15
-72 6 0 -4 -19 -6 -43 -7 -51 0 -117 -13 -186 -35 -49 -15 -174 -79 -183 -93
-4 -6 -8 -7 -8 -3 0 13 -89 -61 -148 -123 -99 -103 -180 -249 -206 -370 -3
-14 -9 -36 -12 -50 -11 -42 -12 -250 -2 -294 6 -22 11 -48 12 -56 3 -27 29
-105 38 -114 4 -6 8 -16 8 -22 0 -32 116 -203 179 -264 107 -103 281 -198 396
-216 17 -3 46 -9 65 -15 47 -12 8509 -12 8524 0 6 5 25 11 41 14 131 23 298
118 411 234 78 80 162 214 189 303 12 39 25 90 29 110 2 14 5 25 6 25 1 0 3
23 5 50 2 28 4 50 5 50 1 0 2 93 3 208 1 114 -1 207 -5 207 -4 0 -5 7 -1 16 8
22 9 224 1 224 -4 0 -5 7 -2 15 9 22 10 385 2 385 -4 0 -5 7 -1 16 8 22 9 224
1 224 -4 0 -5 7 -2 15 9 22 10 385 2 385 -4 0 -5 7 -1 16 8 22 9 224 1 224 -4
0 -5 7 -2 15 9 22 10 385 2 385 -4 0 -5 7 -1 16 8 22 9 224 1 224 -4 0 -5 7
-2 15 9 22 10 385 2 385 -4 0 -5 7 -1 16 9 24 9 224 0 224 -5 0 -5 5 -1 11 3
6 6 83 6 170 l0 159 87 41 c47 22 88 40 90 39 2 -1 7 2 10 7 7 10 39 30 66 42
39 17 219 144 300 211 50 42 238 233 270 274 17 22 35 45 41 51 56 56 290 455
267 455 -4 0 -2 4 5 8 7 5 14 18 17 30 2 12 11 36 19 54 18 39 65 178 69 204
1 11 6 25 11 32 4 7 5 16 2 19 -3 3 -1 12 5 20 6 7 9 13 6 13 -3 0 -1 17 4 38
33 130 44 250 44 452 -1 140 -7 260 -15 280 -1 3 -2 8 -2 11 1 7 -12 85 -23
144 -3 17 -13 53 -21 80 -8 28 -14 51 -14 53 3 6 -33 120 -46 149 -8 17 -14
35 -14 40 0 5 -10 29 -21 53 -12 24 -22 49 -23 54 -5 27 -125 250 -137 254 -5
2 -9 8 -9 13 0 10 -95 155 -114 175 -6 6 -22 25 -36 43 -50 64 -167 185 -246
255 -115 102 -133 116 -143 116 -5 0 -11 3 -13 8 -4 10 -90 72 -100 72 -5 0
-18 9 -30 20 -12 11 -28 20 -35 20 -7 0 -13 3 -13 8 0 4 -15 13 -32 21 -18 8
-40 19 -48 25 -24 19 -188 93 -280 127 -94 34 -280 84 -350 94 -55 8 -85 13
-85 15 0 13 -435 20 -525 8 -30 -4 -75 -10 -100 -13 -25 -3 -56 -8 -70 -11
-14 -4 -34 -8 -46 -10 -11 -1 -40 -8 -65 -14 -24 -7 -53 -14 -64 -17 -29 -6
-37 -9 -66 -21 -15 -6 -45 -15 -67 -21 -22 -6 -56 -18 -76 -26 -20 -8 -37 -15
-38 -14 -7 2 -253 -124 -265 -137 -8 -7 -19 -14 -24 -14 -15 0 -151 -94 -242
-167 -79 -64 -239 -219 -303 -295 -77 -92 -182 -246 -230 -338 -16 -30 -33
-58 -39 -62 -5 -4 -6 -8 -2 -8 5 0 -2 -15 -15 -32 -13 -18 -22 -34 -21 -35 3
-3 -5 -23 -42 -108 -13 -31 -27 -66 -30 -75 0 -3 -11 -38 -24 -78 -13 -40 -24
-78 -25 -85 -1 -7 -5 -18 -9 -24 -5 -7 -6 -13 -3 -13 2 0 0 -15 -5 -32 -5 -18
-12 -48 -15 -67 -3 -18 -8 -42 -10 -52 -2 -11 -6 -27 -8 -36 -26 -122 -27
-537 -1 -663 3 -14 12 -56 19 -95 15 -74 17 -83 36 -155 14 -51 47 -155 60
-185 17 -41 23 -60 22 -67 -1 -5 3 -8 10 -8 6 0 9 -3 5 -6 -6 -7 103 -227 115
-232 5 -2 6 -8 2 -13 -3 -5 -1 -9 4 -9 5 0 13 -10 19 -23 6 -12 39 -64 74
-114 204 -292 486 -534 807 -694 l122 -61 -2 -1337 -3 -1336 -1910 0 -1910 0
-1 1337 -1 1337 121 61 c67 33 130 66 141 73 35 20 170 111 175 117 3 3 32 25
65 50 69 52 272 251 330 325 22 28 45 53 50 57 6 4 7 8 3 8 -7 0 7 20 37 54
19 21 115 177 115 186 0 6 4 10 10 10 5 0 9 3 8 8 -1 4 22 54 51 112 48 96
131 320 134 362 1 10 5 18 9 18 4 0 7 3 6 8 -2 6 4 38 18 102 12 58 22 117 32
200 8 69 8 419 -1 480 -9 70 -18 121 -28 170 -5 25 -11 54 -13 65 -2 11 -9 40
-16 65 -7 25 -13 52 -15 60 -13 61 -94 262 -154 380 -51 101 -160 275 -181
290 -4 3 -11 12 -16 21 -29 51 -244 279 -341 361 -96 82 -254 186 -383 255
-123 65 -367 158 -462 177 -13 2 -52 11 -88 19 -59 14 -101 21 -200 34 -49 6
-417 13 -422 7z m297 -1679 c17 -4 36 -13 44 -19 8 -6 17 -11 20 -10 9 1 53
-19 86 -41 68 -44 175 -177 175 -217 0 -8 3 -18 7 -22 15 -15 31 -110 29 -170
-3 -70 -25 -176 -38 -176 -4 0 -8 -7 -8 -16 0 -8 -13 -34 -29 -57 -32 -47
-101 -125 -101 -114 0 4 -9 -1 -19 -10 -35 -32 -50 -43 -58 -43 -4 0 -21 -7
-36 -15 -135 -70 -363 -42 -485 60 -58 48 -102 100 -131 155 -18 33 -30 60
-26 60 3 0 0 10 -6 22 -14 26 -23 83 -23 148 0 129 46 239 142 336 53 54 166
119 220 127 19 3 36 7 38 10 7 7 166 1 199 -8z m5537 -14 c37 -12 72 -29 78
-37 7 -8 18 -14 25 -14 18 0 132 -112 145 -141 5 -13 14 -31 20 -39 16 -25 39
-83 46 -115 9 -46 11 -196 2 -201 -4 -3 -8 -16 -8 -28 0 -43 -69 -163 -127
-221 -60 -59 -168 -119 -239 -132 -42 -7 -156 -8 -189 -1 -171 37 -324 172
-367 323 -19 65 -19 67 -22 135 -4 100 35 231 87 297 78 97 187 169 287 188
12 2 25 6 27 9 13 13 175 -3 235 -23z"/>
</g>
</svg>
